:version 1.10
:name ASF
:units
  mass 1
  length 1
  angle deg
:documentation
  ASF file generated by Kaydara
:root
  axis xyz
  order  tx ty tz rx ry rz
  position 0 0 0
  orientation 0 0 0
:bonedata
  begin
    id 1
    name RightUpLegDummy
    direction -0.718183 -0.695806 0.00816078
    length 4.904
    axis 0 0 0 xyz
  end
  begin
    id 2
    name RightUpLeg
    direction 3.53373e-006 -0.995788 0.0916898
    length 17.4976
    axis -3.49089 -0.000906625 0.000286804 xyz
    dof rx ry rz
  end
  begin
    id 3
    name RightLeg
    direction 0.00371092 -0.995096 -0.0988419
    length 16.5821
    axis 3.68512 0.0193738 -0.131023 xyz
    dof rx ry rz
  end
  begin
    id 4
    name RightFoot
    direction 0.00079151 -0.46099 0.887405
    length 3.77069
    axis 4.81691e-005 -0.120479 -0.188788 xyz
    dof rx ry rz
  end
  begin
    id 5
    name RightToes
    direction 0 0 0
    length 0
    axis 0 0 0 xyz
    dof rx ry rz
  end
  begin
    id 6
    name SpineDummy
    direction 8.3039e-015 1 4.57515e-016
    length 4.6813
    axis 0 0 0 xyz
  end
  begin
    id 7
    name Spine
    direction -3.15643e-008 0.999988 0.00495137
    length 10.1015
    axis -0.001389 0.000121418 2.40972e-006 xyz
    dof rx ry rz
  end
  begin
    id 8
    name Spine1
    direction 0 0 0
    length 0
    axis -0.001389 0.000121451 1.30017e-006 xyz
    dof rx ry rz
  end
  begin
    id 9
    name HEadDummy
    direction -1.99912e-008 0.999999 0.00127422
    length 3.43865
    axis -0.001389 0.000121451 1.30017e-006 xyz
  end
  begin
    id 10
    name HEad
    direction 0 0 0
    length 0
    axis 0 0 0 xyz
    dof rx ry rz
  end
  begin
    id 11
    name LeftShoulder1Dummy
    direction 0.998891 -0.0402509 -0.0244456
    length 3.5433
    axis -0.001389 0.000121451 1.30017e-006 xyz
  end
  begin
    id 12
    name LeftShoulder1
    direction 0.99951 -0.000327763 0.0313091
    length 4.05031
    axis -0.001389 0.000121451 1.30017e-006 xyz
    dof rx ry rz
  end
  begin
    id 13
    name LeftArm
    direction 0.998561 -0.00100056 -0.0536182
    length 10.3537
    axis -23.1894 0.134784 0.967509 xyz
    dof rx ry rz
  end
  begin
    id 14
    name LeftForeArm
    direction 0.998903 0.00866432 0.046012
    length 8.70632
    axis -9.91835 -0.06569 -0.177794 xyz
    dof rx ry rz
  end
  begin
    id 15
    name LeftHand
    direction 0 0 0
    length 0
    axis 0 0 0 xyz
    dof rx ry rz
  end
  begin
    id 16
    name RightShoulderDummy
    direction -0.998891 -0.0402509 -0.0244414
    length 3.5433
    axis -0.001389 0.000121451 1.30017e-006 xyz
  end
  begin
    id 17
    name RightShoulder
    direction -0.99951 -0.000327807 0.0313133
    length 4.05031
    axis 0.215806 0.000203643 -0.0068026 xyz
    dof rx ry rz
  end
  begin
    id 18
    name RightArm
    direction -0.998573 -0.000999564 -0.053403
    length 10.3947
    axis -23.2009 -0.134239 -0.964101 xyz
    dof rx ry rz
  end
  begin
    id 19
    name RightForeArm
    direction -0.998898 0.00868028 0.0461306
    length 8.68355
    axis -9.92322 0.0658061 0.178868 xyz
    dof rx ry rz
  end
  begin
    id 20
    name RightHand
    direction 0 0 0
    length 0
    axis 0 0 0 xyz
    dof rx ry rz
  end
  begin
    id 21
    name LeftUpLegDummy
    direction 0.718183 -0.695806 0.00816078
    length 4.904
    axis 0 0 0 xyz
  end
  begin
    id 22
    name LeftUpLeg
    direction -6.81752e-006 -0.995793 0.0916337
    length 17.4976
    axis -3.48766 0.00143442 -0.000524262 xyz
    dof rx ry rz
  end
  begin
    id 23
    name LeftLeg
    direction -0.00601358 -0.995091 -0.0987824
    length 16.5821
    axis 3.68178 -0.00654042 -0.000285133 xyz
    dof rx ry rz
  end
  begin
    id 24
    name LeftFoot
    direction -0.00417578 -0.460984 0.887399
    length 3.77069
    axis 1.87233e-006 4.66016e-005 -8.6538e-006 xyz
    dof rx ry rz
  end
  begin
    id 25
    name LeftToes
    direction 0 0 0
    length 0
    axis 0 0 0 xyz
    dof rx ry rz
  end
:hierarchy
  begin
    root RightUpLegDummy SpineDummy LeftUpLegDummy
    RightUpLegDummy RightUpLeg
    RightUpLeg RightLeg
    RightLeg RightFoot
    RightFoot RightToes
    SpineDummy Spine
    Spine Spine1
    Spine1 HEadDummy LeftShoulder1Dummy RightShoulderDummy
    HEadDummy HEad
    LeftShoulder1Dummy LeftShoulder1
    LeftShoulder1 LeftArm
    LeftArm LeftForeArm
    LeftForeArm LeftHand
    RightShoulderDummy RightShoulder
    RightShoulder RightArm
    RightArm RightForeArm
    RightForeArm RightHand
    LeftUpLegDummy LeftUpLeg
    LeftUpLeg LeftLeg
    LeftLeg LeftFoot
    LeftFoot LeftToes
  end

:SAMPLES-PER-SECOND 30
:FULLY-SPECIFIED
:DEGREES
90
root  12.3965 40.6698 9.1371 177.142 76.6029 173.907
RightUpLeg  -6.86783 -12.0354 -8.60499
RightLeg  9.0041 -18.3059 2.87694
RightFoot  -0.653869 -0.015988 0.123895
RightToes  0.000481921 0.542163 -0.142578
Spine  15.2004 0.927166 7.15753
Spine1  -4.51941 2.53679 -5.65522
HEad  15.44 -17.4984 1.85806
LeftShoulder1  7.20234 -12.5321 -38.7212
LeftArm  -4.35939 18.9739 -36.7352
LeftForeArm  179.658 -56.5782 -165.66
LeftHand  -0.25398 0.0180481 5.50724
RightShoulder  2.19153 5.23811 18.6801
RightArm  -20.5883 7.48742 46.3436
RightForeArm  139.586 68.2494 153.65
RightHand  0.0588199 -6.5066 -5.90983
LeftUpLeg  -8.89645 4.4839 4.03619
LeftLeg  2.67421 6.89272 -3.29307
LeftFoot  4.56002 0.331854 -2.57417
LeftToes  1.06247e-005 4.65869e-005 -8.65511e-006
91
root  12.7363 40.6514 9.31793 177.388 72.7335 173.903
RightUpLeg  -6.24378 -12.8591 -8.93577
RightLeg  10.1666 -21.2249 2.32071
RightFoot  -2.01526 -0.055517 0.51648
RightToes  0.000481921 0.542163 -0.142578
Spine  14.434 -0.623814 1.41653
Spine1  -4.72287 -0.686835 1.12079
HEad  14.8735 -14.2823 0.296612
LeftShoulder1  6.07278 -10.3294 -37.7465
LeftArm  -3.67089 19.6857 -36.9554
LeftForeArm  -178.451 -56.4864 -165.858
LeftHand  -0.25398 0.0180481 5.50724
RightShoulder  2.24551 3.9853 23.8816
RightArm  -19.0179 -15.2898 49.2717
RightForeArm  153.701 51.1022 167
RightHand  -0.0298914 -6.71588 -0.240931
LeftUpLeg  -9.18179 3.84069 3.59547
LeftLeg  2.40638 3.76575 -3.17754
LeftFoot  4.90653 0.356911 -2.70991
LeftToes  1.06247e-005 4.65869e-005 -8.65511e-006
92
root  13.0458 40.6253 9.3873 178.72 69.1739 175.121
RightUpLeg  -5.32417 -13.4631 -9.00637
RightLeg  10.7793 -24.0568 2.03561
RightFoot  -2.9966 -0.101118 1.10324
RightToes  0.000481921 0.542163 -0.142578
Spine  13.7335 -3.01745 -4.20771
Spine1  -5.21259 -4.68113 8.19753
HEad  15.3905 -9.09323 -1.75801
LeftShoulder1  4.85295 -7.72709 -37.0644
LeftArm  -4.3715 21.4974 -37.3867
LeftForeArm  -177.483 -55.4746 -166.445
LeftHand  -0.25398 0.0180481 5.50724
RightShoulder  1.71992 1.85878 25.8345
RightArm  -16.0566 -30.8092 52.5622
RightForeArm  151.331 46.1381 168.253
RightHand  -0.0370294 -4.81567 0.271268
LeftUpLeg  -9.77685 3.49826 3.40622
LeftLeg  3.0344 0.581121 -2.91732
LeftFoot  4.76212 0.342119 -2.62246
LeftToes  1.06247e-005 4.65869e-005 -8.65511e-006
93
root  13.2631 40.6265 9.33316 178.65 68.9998 175.817
RightUpLeg  -4.12947 -13.9187 -8.95278
RightLeg  10.8714 -23.6492 1.91793
RightFoot  -3.34193 -0.118931 1.36933
RightToes  0.000481921 0.542163 -0.142578
Spine  13.0821 -4.95202 -7.26063
Spine1  -4.76118 -7.29487 10.9048
HEad  17.2876 -4.22314 -1.94774
LeftShoulder1  4.09917 -6.07924 -36.6116
LeftArm  -6.07123 23.5466 -37.5348
LeftForeArm  -178.883 -54.3031 -166.905
LeftHand  -0.25398 0.0180481 5.50724
RightShoulder  1.50031 1.49934 23.8698
RightArm  -12.3731 -37.6595 56.5478
RightForeArm  150.612 48.3825 167.256
RightHand  -0.0410701 -4.77179 -1.52395
LeftUpLeg  -8.97398 3.66542 3.59337
LeftLeg  3.69243 0.129857 -2.70835
LeftFoot  4.14926 0.307016 -2.44295
LeftToes  1.06247e-005 4.65869e-005 -8.65511e-006
94
root  13.3865 40.6585 9.20579 175.524 73.4679 173.959
RightUpLeg  -3.60686 -14.2083 -9.02805
RightLeg  10.9993 -18.8194 1.52836
RightFoot  -3.23206 -0.102606 1.1019
RightToes  0.000481921 0.542163 -0.142578
Spine  11.9807 -4.72326 -6.56659
Spine1  -3.54225 -6.47082 7.2823
HEad  19.6813 -2.72553 0.287167
LeftShoulder1  4.02174 -6.01316 -36.1125
LeftArm  -6.63954 23.5307 -36.6611
LeftForeArm  179.749 -54.1387 -166.876
LeftHand  -0.25398 0.0180481 5.50724
RightShoulder  1.65892 2.50555 21.2504
RightArm  -9.4115 -37.686 59.0576
RightForeArm  152.946 52.0804 165.823
RightHand  -0.0433343 -4.94692 -2.48785
LeftUpLeg  -6.36916 4.31534 3.92285
LeftLeg  3.37957 3.74091 -2.89557
LeftFoot  3.44055 0.291765 -2.41109
LeftToes  1.06247e-005 4.65869e-005 -8.65511e-006
95
root  13.4527 40.6847 9.03461 167.872 79.9242 167.519
RightUpLeg  -3.71128 -13.6519 -9.20948
RightLeg  11.0904 -12.8147 1.16748
RightFoot  -2.94682 -0.0827922 0.780254
RightToes  0.000481921 0.542163 -0.142578
Spine  10.9336 -2.84927 -3.82041
Spine1  -2.66692 -3.41305 1.53664
HEad  21.0424 -3.57487 2.45089
LeftShoulder1  4.35055 -6.85876 -35.8489
LeftArm  -5.92018 21.4871 -35.1348
LeftForeArm  -179.999 -54.8062 -166.578
LeftHand  -0.25398 0.0180481 5.50724
RightShoulder  1.85267 3.18135 21.3845
RightArm  -5.29155 -32.139 56.8371
RightForeArm  157.372 54.4775 164.975
RightHand  -0.0410258 -4.52932 -1.1533
LeftUpLeg  -3.21608 5.22839 4.14986
LeftLeg  2.50378 9.0972 -3.52128
LeftFoot  2.75762 0.285923 -2.44735
LeftToes  1.06247e-005 4.65869e-005 -8.65511e-006
96
root  13.4904 40.6884 8.82058 145.229 85.2102 145.698
RightUpLeg  -3.89155 -12.6182 -9.35683
RightLeg  10.7772 -8.19584 1.33788
RightFoot  -2.55048 -0.0857076 0.811428
RightToes  0.000481921 0.542163 -0.142578
Spine  9.97168 -1.19656 -1.112
Spine1  -1.96679 -0.926623 -1.9972
HEad  21.0776 -3.2682 2.12058
LeftShoulder1  4.81371 -7.75708 -36.6047
LeftArm  -5.86653 19.4383 -33.5932
LeftForeArm  -179.753 -55.3702 -166.323
LeftHand  -0.25398 0.0180481 5.50724
RightShoulder  2.03068 3.30469 23.6208
RightArm  -0.144287 -22.0025 51.8415
RightForeArm  163.458 56.8917 164.132
RightHand  -0.0209663 -4.01524 0.687299
LeftUpLeg  -0.983841 5.98892 4.31387
LeftLeg  2.12458 13.772 -4.10039
LeftFoot  1.97277 0.269184 -2.40884
LeftToes  1.06247e-005 4.65869e-005 -8.65511e-006
97
root  13.5098 40.6758 8.59705 85.6647 87.4375 86.6987
RightUpLeg  -4.08604 -11.8356 -9.31685
RightLeg  10.3932 -4.55036 1.6329
RightFoot  -2.09428 -0.105693 1.10776
RightToes  0.000481921 0.542163 -0.142578
Spine  9.13519 -0.349314 1.12809
Spine1  -1.1451 0.348057 -3.51201
HEad  20.7339 -0.958705 0.040153
LeftShoulder1  5.21766 -8.34411 -37.8675
LeftArm  -6.91883 18.5555 -32.7163
LeftForeArm  179.52 -55.6158 -166.143
LeftHand  -0.25398 0.0180481 5.50724
RightShoulder  2.28404 3.83986 24.9785
RightArm  3.21125 -10.465 48.9674
RightForeArm  169.613 60.9792 162.082
RightHand  -0.0149194 -3.06908 0.543969
LeftUpLeg  0.238816 6.51484 4.45624
LeftLeg  2.60597 17.58 -4.20464
LeftFoot  1.06301 0.256319 -2.41941
LeftToes  1.06247e-005 4.65869e-005 -8.65511e-006
98
root  13.522 40.6582 8.42356 26.8362 85.3768 28.4336
RightUpLeg  -4.3141 -11.0748 -9.09409
RightLeg  10.3906 -1.77398 1.55575
RightFoot  -1.76144 -0.1186 1.29463
RightToes  0.000481921 0.542163 -0.142578
Spine  9.16815 0.160572 2.98415
Spine1  -1.04263 1.17601 -4.70344
HEad  20.7065 1.44263 -1.45817
LeftShoulder1  5.42978 -8.68332 -38.3645
LeftArm  -7.66793 18.3779 -32.9404
LeftForeArm  179.033 -55.8682 -165.977
LeftHand  -0.25398 0.0180481 5.50724
RightShoulder  2.58487 4.86902 24.7426
RightArm  3.81099 -3.11724 49.2517
RightForeArm  173.005 65.0499 159.245
RightHand  -0.0676417 -1.73747 -1.71091
LeftUpLeg  1.10911 6.83366 4.49403
LeftLeg  3.35182 20.7623 -3.97849
LeftFoot  0.31286 0.258282 -2.54972
LeftToes  1.06247e-005 4.65869e-005 -8.65511e-006
99
root  13.5428 40.6518 8.33189 20.7128 83.7348 22.6716
RightUpLeg  -4.42043 -10.3405 -8.93521
RightLeg  10.5528 -0.771616 1.22635
RightFoot  -1.65013 -0.116884 1.25517
RightToes  0.000481921 0.542163 -0.142578
Spine  9.61614 0.353065 3.82751
Spine1  -1.68379 1.53289 -5.45238
HEad  20.7916 2.6653 -1.48115
LeftShoulder1  5.53158 -9.00184 -38.0594
LeftArm  -7.32914 18.222 -33.5533
LeftForeArm  179.361 -56.0306 -165.92
LeftHand  -0.25398 0.0180481 5.50724
RightShoulder  2.74939 5.51309 24.3356
RightArm  2.67316 -2.17193 50.8763
RightForeArm  172.637 66.9835 157.335
RightHand  -0.153855 -1.20865 -4.1071
LeftUpLeg  1.6033 6.87283 4.3638
LeftLeg  3.73285 22.4585 -3.76585
LeftFoot  -0.00244934 0.257998 -2.60002
LeftToes  1.06247e-005 4.65869e-005 -8.65511e-006
